<?xml version="1.0" standalone="no"?>
<!DOCTYPE svg PUBLIC "-//W3C//DTD SVG 1.1//EN" "http://www.w3.org/Graphics/SVG/1.1/DTD/svg11.dtd">
<svg xmlns="http://www.w3.org/2000/svg">
<defs >
<font id="Chivo" horiz-adv-x="574" ><font-face
    font-family="Chivo Medium ExtraLight"
    units-per-em="1000"
    panose-1="0 0 0 0 0 0 0 0 0 0"
    ascent="940"
    descent="-250"
    alphabetic="0" />
<glyph unicode=" " horiz-adv-x="238" />
<glyph unicode="!" horiz-adv-x="274" d="M112 151L96 686H179L162 151H112ZM98 0V82H177V0H98Z" />
<glyph unicode="&quot;" horiz-adv-x="372" d="M239 412L224 539V686H288V539L273 412H239ZM98 412L83 539V686H147V539L132 412H98Z" />
<glyph unicode="#" horiz-adv-x="645" d="M102 0L143 186H28V249H157L195 417H68V481H209L257 696H323L274 481H433L482 696H547L498 481H608V417H484L446 249H570V186H432L391 0H326L367 186H207L166 0H102ZM222 249H382L420 417H259L222 249Z" />
<glyph unicode="$" horiz-adv-x="552" d="M246 -66L255 19Q194 23 143 41T62 100T31 205Q31 209 31 214T32 221H97Q96 221 96 212T96 198Q96 153 119 128T184 91T276 80Q328 80 368 90T433 127T457 201Q457 241 435 264T376 301T296 324T209 346T128 376T69 427T47
512Q47 566 76 600T152 651T256 672L246 762H304L294 672Q353 671 401 653T477 599T506 503V491H443V510Q443 547 421 570T362 604T279 615Q233 615 196 606T138 574T116 513Q116 477 138 456T196 421T277 399T364 377T444 346T503 293T525 207Q525 141 494 100T411
40T294 19L304 -66H246Z" />
<glyph unicode="%" horiz-adv-x="701" d="M112 0L529 686H592L176 0H112ZM153 336Q116 336 90 352T49 396T34 457V566Q34 599 49 626T90 670T153 686H158Q195 686 221 670T262 627T277 566V457Q277 424 263 397T222 353T159 336H153ZM156 385Q189 385 205 404T222
452V571Q222 598 206 617T156 637Q125 637 107 618T89 571V452Q89 424 107 405T156 385ZM543 -1Q506 -1 480 15T439 59T424 120V229Q424 262 439 289T480 333T543 349H548Q585 349 611 333T652 290T667 229V120Q667 87 653 60T612 16T549 -1H543ZM546 48Q579 48
595 67T612 115V234Q612 261 596 280T546 300Q515 300 497 281T479 234V115Q479 87 497 68T546 48Z" />
<glyph unicode="&amp;" horiz-adv-x="670" d="M307 0Q260 0 218 12T143 49T92 110T73 193Q73 263 109 300T200 353V356Q168 371 143 391T102 439T87 511Q87 556 104 590T152 648T222 684T307 696Q340 696 373 689V628Q344 637 309 637Q268 637 233 624T178 581T157
508Q157 466 178 438T235 395T312 380H442L464 538H509V380H624V324H509V0H307ZM309 56H442V324H308Q262 324 224 311T164 268T142 193Q142 127 189 92T309 56Z" />
<glyph unicode="&apos;" horiz-adv-x="231" d="M98 412L83 539V686H147V539L132 412H98Z" />
<glyph unicode="(" horiz-adv-x="292" d="M206 -157Q130 -70 89 39T47 265Q47 381 88 490T206 686H244Q207 629 177 561T129 418T111 265Q111 188 129 113T177 -31T244 -157H206Z" />
<glyph unicode=")" horiz-adv-x="291" d="M28 -157Q65 -100 95 -32T143 112T161 265Q161 343 143 417T95 560T28 686H65Q142 599 183 490T224 265Q224 149 183 40T65 -157H28Z" />
<glyph unicode="*" horiz-adv-x="472" d="M145 344L89 382L203 512L36 554L58 617L217 548L204 720H272L255 547L417 614L437 549L267 511L379 380L324 340L233 489L145 344Z" />
<glyph unicode="+" horiz-adv-x="616" d="M275 0V222H52V288H275V511H341V288H564V222H341V0H275Z" />
<glyph unicode="," horiz-adv-x="244" d="M82 -113V-105Q102 -81 113 -56T124 0H88V103H171V13Q171 -20 162 -52T127 -113H82Z" />
<glyph unicode="-" horiz-adv-x="387" d="M67 235V304H320V235H67Z" />
<glyph unicode="." horiz-adv-x="244" d="M83 0V82H162V0H83Z" />
<glyph unicode="/" horiz-adv-x="606" d="M15 -171L505 686H572L83 -171H15Z" />
<glyph unicode="0" horiz-adv-x="615" d="M302 -10Q239 -10 189 18T110 97T80 214V472Q80 539 109 589T189 668T302 696H312Q376 696 426 668T505 590T534 472V214Q534 148 505 97T426 18T312 -10H302ZM307 49Q352 49 387 69T443 125T464 206V480Q464 525 444
561T388 617T307 637Q262 637 227 617T171 561T150 480V206Q150 161 171 126T227 70T307 49Z" />
<glyph unicode="1" horiz-adv-x="615" d="M94 0V60H285V603H94V646Q124 649 160 654T239 670T327 696H354V60H544V0H94Z" />
<glyph unicode="2" horiz-adv-x="615" d="M75 0V32Q75 97 101 137T179 211L377 342Q411 364 437 400T464 490Q464 557 424 596T310 636Q263 636 227 615T171 558T150 477Q150 469 150 464T151 453H83Q83 460 83 463T83 471Q83 538 113 588T195 667T312 696H318Q386
696 434 671T508 600T534 493Q534 440 517 402T472 336T411 287L210 154Q184 138 173 119T158 85T154 61H538V0H75Z" />
<glyph unicode="3" horiz-adv-x="615" d="M301 -10Q233 -10 182 14T101 82T72 183V200H139Q139 122 183 86T305 49Q378 49 425 85T473 189Q473 236 451 265T391 309T308 323H228V379H302Q344 379 379 394T436 438T458 512Q458 556 438 583T383 624T305 637Q234
637 193 601T152 496H87V511Q87 569 116 610T196 673T306 696H314Q373 696 421 676T499 615T528 515Q528 472 512 442T471 390T417 356V352Q470 335 506 296T542 187Q542 128 511 84T427 15T309 -10H301Z" />
<glyph unicode="4" horiz-adv-x="615" d="M396 0V183H58V242Q70 259 91 295T139 380T193 485T244 594T285 696H354Q339 646 316 592T268 484T216 383T165 300T123 242H396V482Q401 491 407 503T420 529T432 556T441 579H467V242H551V183H467V0H396Z" />
<glyph unicode="5" horiz-adv-x="615" d="M310 -10Q236 -10 187 20T111 100T85 213H153Q153 168 169 131T220 72T311 50Q361 50 396 73T450 134T469 217Q469 296 430 340T313 384Q269 384 229 361T167 301L107 309L136 686H507V622H197L179 386Q209 413 247 427T328
442Q393 442 440 415T513 338T539 220Q539 157 511 105T431 22T310 -10Z" />
<glyph unicode="6" horiz-adv-x="615" d="M310 -10Q246 -10 196 18T117 97T88 214V472Q88 539 116 589T194 668T308 696H315Q378 696 426 670T501 595T529 474H463Q463 556 420 596T312 637Q267 637 232 617T178 561T158 480V346Q187 386 232 408T327 430Q388
430 436 403T513 327T542 213Q542 146 513 96T432 18T317 -10H310ZM315 48Q363 48 398 69T452 127T472 212Q472 261 452 297T396 354T315 374Q269 374 234 354T178 297T158 212Q158 163 178 126T234 69T315 48Z" />
<glyph unicode="7" horiz-adv-x="615" d="M198 0Q198 96 221 185T282 354T365 502T453 623H74V686H550V649Q490 581 438 504T349 344T292 175T278 0H198Z" />
<glyph unicode="8" horiz-adv-x="615" d="M307 -10Q239 -10 187 12T105 77T75 184Q75 252 108 292T195 352V356Q153 377 126 412T98 510Q98 569 125 610T199 674T309 696Q372 696 418 674T491 611T517 511Q517 469 505 439T470 390T420 356V352Q474 329 507 292T541
184Q541 125 514 82T435 14T307 -10ZM308 47Q391 47 431 84T471 186Q471 250 428 287T308 324Q231 324 189 287T146 186Q146 123 185 85T308 47ZM307 379Q366 379 407 412T449 509Q449 572 411 605T307 639Q242 639 204 605T166 509Q166 447 207 413T307 379Z"
/>
<glyph unicode="9" horiz-adv-x="615" d="M315 -10Q250 -10 201 17T123 95T95 212H161Q161 138 204 94T314 49Q359 49 394 69T450 125T470 206V341Q442 302 396 279T300 256Q240 256 192 283T115 360T86 473Q86 541 116 591T197 668T313 696Q379 696 430 668T510
590T540 472V214Q540 147 511 97T431 18T315 -10ZM313 312Q359 312 394 333T450 391T470 474Q470 524 450 560T394 617T313 638Q266 638 231 617T176 559T156 474Q156 426 176 390T232 333T313 312Z" />
<glyph unicode=":" horiz-adv-x="247" d="M84 0V82H163V0H84ZM84 429V511H163V429H84Z" />
<glyph unicode=";" horiz-adv-x="247" d="M333 -113V-105Q353 -81 364 -56T375 0H339V103H422V13Q422 -20 413 -52T378 -113H333ZM84 429V511H163V429H84Z" />
<glyph unicode="&lt;" horiz-adv-x="615" d="M553 10L44 207V301L553 498V427L104 254L553 81V10Z" />
<glyph unicode="=" horiz-adv-x="605" d="M52 325V391H553V325H52ZM52 116V182H553V116H52Z" />
<glyph unicode="&gt;" horiz-adv-x="615" d="M62 10V81L511 254L62 427V498L571 301V207L62 10Z" />
<glyph unicode="?" horiz-adv-x="511" d="M230 172V251Q230 286 245 311T284 356T330 398T369 448T385 516Q385 555 371 582T328 623T254 638Q205 638 177 621T135 579T117 531T112 495Q112 484 113 474T115 463H47Q46 465 45 473T44 494Q44 509 49 534T67 587T104
640T166 681T260 697Q315 697 352 682T413 640T446 582T456 515Q456 466 440 433T401 377T353 333T313 291T297 236V172H230ZM223 0V82H302V0H223Z" />
<glyph unicode="@" horiz-adv-x="887" d="M420 -155Q302 -155 216 -112T84 24T38 261Q38 380 71 463T161 598T294 673T455 697Q567 697 655 656T795 529T847 309Q847 225 829 165T780 67T717 10T656 -9Q608 -9 591 19T572 87Q542 37 496 14T388 -10Q357 -10 328
-4T276 19T239 63T225 134Q225 190 250 222T321 271T431 293T571 298V358Q571 420 542 443T446 467Q389 467 349 445T309 370V355H244Q243 361 243 367T242 380Q242 424 269 456T341 504T444 521H451Q545 521 591 483T638 369V78Q638 60 644 52T662 44Q684 44 707
59T749 107T780 190T792 310Q792 425 749 499T630 609T454 645Q343 645 262 603T137 476T93 260Q93 79 172 -12T420 -103Q443 -103 475 -99T537 -87T585 -71V-128Q564 -136 534 -142T473 -151T420 -155ZM406 44Q447 44 484 62T546 117T571 212V247Q486 247 424
241T328 211T293 135Q293 88 320 66T406 44Z" />
<glyph unicode="A" horiz-adv-x="658" d="M15 0L293 686H366L644 0H567L500 165H154L87 0H15ZM177 224H476L329 597H325L177 224Z" />
<glyph unicode="B" horiz-adv-x="652" d="M102 0V686H392Q447 686 486 666T546 609T567 526Q567 475 548 440T502 386T447 359V353Q462 351 484 343T529 316T567 267T583 187Q583 135 558 93T489 25T391 0H102ZM172 60H380Q417 60 446 77T494 124T512 190Q512
227 494 256T446 303T380 320H172V60ZM172 380H370Q406 380 434 397T479 444T496 508Q496 562 469 594T385 627H172V380Z" />
<glyph unicode="C" horiz-adv-x="665" d="M334 -10Q279 -10 232 5T149 58T94 161T74 326V361Q74 460 95 525T153 627T238 680T341 696H349Q398 696 443 684T523 641T578 559T599 431H530Q530 513 505 557T436 619T341 636Q299 636 264 625T202 585T162 505T147
376V310Q147 206 170 150T237 72T339 50Q391 50 434 67T504 129T531 254H599Q599 182 578 131T521 49T438 4T342 -10H334Z" />
<glyph unicode="D" horiz-adv-x="675" d="M102 0V686H331Q387 686 436 671T522 620T580 522T601 367V335Q601 243 581 179T523 75T436 18T331 0H102ZM173 60H329Q385 60 430 83T501 163T528 320V377Q528 475 502 529T430 604T329 626H173V60Z" />
<glyph unicode="E" horiz-adv-x="594" d="M102 0V686H536L525 626H173V380H487V320H173V60H533L545 0H102Z" />
<glyph unicode="F" horiz-adv-x="551" d="M102 0V686H518L507 626H173V378H461V318H173V0H102Z" />
<glyph unicode="G" horiz-adv-x="680" d="M334 -10Q278 -10 231 6T149 59T94 162T74 326V361Q74 459 94 524T150 626T235 680T341 696H348Q397 696 442 684T522 643T577 566T598 448H530Q530 523 503 563T432 620T339 636Q298 636 263 625T202 585T162 505T147
376V310Q147 232 161 181T202 102T263 62T339 50Q377 50 411 59T473 90T516 151T532 249V297H313V354H598V122Q598 70 601 37T604 0H559L542 90Q511 38 456 14T340 -10H334Z" />
<glyph unicode="H" horiz-adv-x="694" d="M102 0V686H173V381H521V686H592V0H521V320H173V0H102Z" />
<glyph unicode="I" horiz-adv-x="373" d="M72 0V60H151V626H72V686H302V626H222V60H302V0H72Z" />
<glyph unicode="J" horiz-adv-x="528" d="M229 -10Q175 -10 133 10T65 71T40 168V193H106V174Q106 109 142 80T232 50Q268 50 297 62T344 103T362 186V686H433V188Q433 120 407 76T335 11T236 -10H229Z" />
<glyph unicode="K" horiz-adv-x="630" d="M102 0V686H173V294L517 686H598L339 390L607 0H525L292 336L173 202V0H102Z" />
<glyph unicode="L" horiz-adv-x="536" d="M102 0V686H173V60H503L516 0H102Z" />
<glyph unicode="M" horiz-adv-x="934" d="M102 0V686H216L465 97H467L718 686H832V0H761V605H756L498 0H426L170 605H165V0H102Z" />
<glyph unicode="N" horiz-adv-x="693" d="M102 0V686H162L483 197L525 130L528 131V686H592V0H529L200 504L169 555H166V0H102Z" />
<glyph unicode="O" horiz-adv-x="693" d="M341 -10Q286 -10 237 6T152 60T95 163T74 326V360Q74 459 95 524T155 626T241 680T343 696H352Q408 696 456 680T542 626T599 523T620 360V326Q620 227 598 162T539 60T453 6T350 -10H341ZM347 50Q388 50 424 61T488
101T531 181T547 310V376Q547 454 532 505T489 584T425 624T347 636Q305 636 269 625T206 585T163 505T147 376V310Q147 232 162 181T205 102T269 62T347 50Z" />
<glyph unicode="P" horiz-adv-x="626" d="M102 0V686H397Q452 686 493 663T558 599T581 507V501Q581 450 557 405T491 331T393 303H173V0H102ZM173 363H382Q422 363 451 382T495 432T511 501Q511 556 477 591T381 626H173V363Z" />
<glyph unicode="Q" horiz-adv-x="693" d="M485 -140Q424 -140 389 -119T338 -68T318 -8Q266 -5 222 13T144 69T93 169T74 326V360Q74 459 95 524T155 626T241 680T343 696H352Q408 696 456 680T542 626T599 523T620 360V326Q620 207 589 136T504 32T385 -7Q390
-25 400 -43T433 -72T490 -84Q513 -84 539 -78T584 -64T605 -56V-111Q603 -112 587 -119T545 -133T485 -140ZM347 50Q388 50 424 61T488 101T531 181T547 310V376Q547 454 532 505T489 584T425 624T347 636Q305 636 269 625T206 585T163 505T147 376V310Q147 232
162 181T205 102T269 62T347 50Z" />
<glyph unicode="R" horiz-adv-x="671" d="M585 -4Q566 -4 547 5T514 43T500 126Q500 187 487 223T452 277T410 302T375 308H173V0H102V686H401Q450 686 491 666T557 608T582 519Q582 478 566 443T523 382T463 343V338Q466 337 482 330T519 305T554 250T569 155Q569
113 573 88T584 51T600 34T620 23V2Q617 1 608 -1T585 -4ZM173 368H387Q422 368 450 388T495 442T512 513Q512 568 477 597T387 626H173V368Z" />
<glyph unicode="S" horiz-adv-x="630" d="M314 -10Q245 -10 188 9T96 71T62 190Q62 194 62 199T63 208H130Q129 202 129 196T129 183Q129 135 153 106T218 64T311 50Q364 50 405 62T470 105T494 186Q494 229 472 255T412 296T331 322T242 345T161 378T102 432T79
519Q79 580 111 619T197 677T313 696Q378 696 430 678T514 619T546 513V500H480V520Q480 559 458 584T399 623T315 636Q269 636 232 625T172 589T150 523Q150 484 172 460T232 422T313 398T402 374T483 339T542 283T565 193Q565 118 531 74T440 10T314 -10Z" />
<glyph unicode="T" horiz-adv-x="579" d="M254 0V626H29V686H550V626H325V0H254Z" />
<glyph unicode="U" horiz-adv-x="680" d="M334 -10Q262 -10 209 18T126 98T96 220V686H167V222Q167 145 212 98T339 50Q423 50 468 98T513 222V686H584V220Q584 152 554 100T470 19T344 -10H334Z" />
<glyph unicode="V" horiz-adv-x="609" d="M270 0L16 686H92L306 105H311L524 686H593L340 0H270Z" />
<glyph unicode="W" horiz-adv-x="928" d="M235 0L36 686H112L271 129H275L435 686H503L662 129H666L825 686H892L693 0H626L466 553H462L303 0H235Z" />
<glyph unicode="X" horiz-adv-x="636" d="M24 0L275 360L47 686H132L319 414H322L512 686H589L360 359L611 0H526L316 304H314L102 0H24Z" />
<glyph unicode="Y" horiz-adv-x="580" d="M254 0V266L10 686H92L291 337H294L496 686H569L325 266V0H254Z" />
<glyph unicode="Z" horiz-adv-x="597" d="M43 0V29L440 626H67V686H546V658L149 60H554V0H43Z" />
<glyph unicode="[" horiz-adv-x="296" d="M82 -161V686H234V643H146V-118H234V-161H82Z" />
<glyph unicode="\" horiz-adv-x="606" d="M504 -171L15 686H82L572 -171H504Z" />
<glyph unicode="]" horiz-adv-x="296" d="M37 -161V-118H125V643H37V686H189V-161H37Z" />
<glyph unicode="^" horiz-adv-x="597" d="M54 0L251 511H345L542 0H472L298 451L125 0H54Z" />
<glyph unicode="_" horiz-adv-x="694" d="M97 -127V-64H597V-127H97Z" />
<glyph unicode="`" horiz-adv-x="580" d="M308 591L215 747V750H290L366 591H308Z" />
<glyph unicode="a" horiz-adv-x="589" d="M216 -10Q175 -10 138 2T78 46T54 132Q54 187 79 220T151 271T261 293T401 298V358Q401 420 372 443T275 467Q219 467 179 445T139 370V355H74Q73 361 73 367T72 380Q72 424 99 456T171 504T274 521H281Q375 521 421 483T468
369V78Q468 60 475 52T493 44Q504 44 518 48T543 60V10Q530 0 513 -5T475 -10Q445 -10 429 3T408 38T402 87Q372 37 325 14T216 -10ZM236 44Q276 44 314 62T376 117T401 212V247Q316 247 254 241T157 211T123 135Q123 88 150 66T236 44Z" />
<glyph unicode="b" horiz-adv-x="584" d="M313 -10Q196 -10 139 84L115 0H88V720H156V442Q179 478 221 499T317 521Q372 521 417 494T490 411T517 275V261Q517 166 490 107T416 19T313 -10ZM303 44Q344 44 377 64T429 129T449 250V276Q449 342 430 384T378 446T304
466Q264 466 230 446T175 384T155 275V249Q155 172 175 127T229 63T303 44Z" />
<glyph unicode="c" horiz-adv-x="550" d="M281 -10Q218 -10 170 21T94 109T67 247V265Q67 325 83 372T128 453T197 504T285 521H290Q348 521 393 497T465 426T492 313H429Q429 365 410 399T359 450T288 467Q223 467 180 420T136 277V235Q136 139 179 92T289 44Q328
44 360 60T411 111T430 198H492Q492 132 465 85T391 14T287 -10H281Z" />
<glyph unicode="d" horiz-adv-x="586" d="M272 -10Q216 -10 170 16T95 101T67 254V265Q67 347 94 404T168 491T270 521Q324 521 365 500T429 442V720H497V0H449L437 75Q410 33 369 12T272 -10ZM282 44Q322 44 355 63T409 127T430 249V275Q430 342 410 384T357
446T282 466Q221 466 179 418T136 270V244Q136 168 155 125T208 63T282 44Z" />
<glyph unicode="e" horiz-adv-x="561" d="M283 -10Q219 -10 170 20T94 107T66 247V264Q66 347 94 404T173 491T287 521H293Q350 521 395 497T467 425T494 312V248H135Q135 182 153 137T206 68T288 44Q326 44 358 60T409 108T429 189H494Q494 127 466 83T392 14T289
-10H283ZM136 298H428Q428 384 391 425T287 467Q226 467 184 425T136 298Z" />
<glyph unicode="f" horiz-adv-x="347" d="M110 0V454H54V511H110V613Q110 673 141 700T221 728Q235 728 248 726T275 720T297 711V658Q285 663 266 668T235 674Q221 674 208 670T187 651T178 608V511H297V454H178V0H110Z" />
<glyph unicode="g" horiz-adv-x="571" d="M176 -188Q141 -188 113 -171T67 -124T50 -62Q50 -26 70 5T125 51Q103 65 91 87T79 135Q79 171 101 196T161 236Q130 258 111 287T92 354Q92 396 114 434T180 497T291 521Q324 521 351 516T400 501Q437 513 460 539T488
603H547Q547 574 535 547T501 501T447 476L446 472Q469 453 481 426T493 365Q493 321 472 284T408 223T298 200H217Q186 200 165 184T144 137Q144 108 165 92T217 75H423Q480 75 513 39T547 -49Q547 -87 529 -119T477 -169T401 -188H176ZM190 -135H398Q432 -135
457 -111T482 -52Q482 -24 462 -3T414 19H190Q158 19 136 -4T113 -58Q113 -90 135 -112T190 -135ZM293 251Q358 251 393 283T428 360Q428 405 393 437T293 470Q228 470 193 438T158 360Q158 315 193 283T293 251Z" />
<glyph unicode="h" horiz-adv-x="595" d="M88 0V720H156V440Q182 481 228 501T319 521Q371 521 412 501T478 439T502 334V0H435V323Q435 399 400 432T302 465Q260 465 227 445T175 392T156 315V0H88Z" />
<glyph unicode="i" horiz-adv-x="265" d="M99 0V511H166V0H99ZM95 656V720H170V656H95Z" />
<glyph unicode="j" horiz-adv-x="264" d="M55 -186Q43 -186 29 -184T3 -178T-20 -168V-116Q-8 -121 11 -126T42 -132Q63 -132 81 -120T99 -64V511H166V-69Q166 -130 135 -158T55 -186ZM95 656V720H170V656H95Z" />
<glyph unicode="k" horiz-adv-x="543" d="M88 0V720H156V201L428 511H509L298 272L524 0H442L254 225L156 126V0H88Z" />
<glyph unicode="l" horiz-adv-x="250" d="M88 0V720H156V0H88Z" />
<glyph unicode="m" horiz-adv-x="867" d="M88 0V511H136L149 435Q172 476 211 498T296 521Q346 521 385 500T447 435Q468 470 508 495T605 521Q654 521 692 501T752 439T775 334V0H708V316Q708 393 678 428T592 464Q555 464 527 445T482 392T465 315V0H398V316Q398
393 368 428T282 464Q245 464 217 445T172 392T156 315V0H88Z" />
<glyph unicode="n" horiz-adv-x="594" d="M88 0V511H135L147 435Q174 477 220 499T317 521Q370 521 411 501T477 439T501 334V0H434V323Q434 399 400 432T302 465Q260 465 227 445T175 392T156 315V0H88Z" />
<glyph unicode="o" horiz-adv-x="580" d="M286 -10Q223 -10 174 20T96 109T67 248V263Q67 346 96 403T175 491T288 521H294Q358 521 407 491T485 403T513 263V248Q513 167 484 109T406 21T292 -10H286ZM290 44Q333 44 368 65T424 129T445 235V276Q445 340 424
382T368 446T290 467Q247 467 212 446T157 383T136 276V235Q136 172 156 129T212 65T290 44Z" />
<glyph unicode="p" horiz-adv-x="584" d="M87 -181V511H135L147 436Q175 478 217 499T314 521Q370 521 416 495T489 411T517 258V245Q517 163 490 106T416 20T314 -10Q260 -10 220 11T155 69V-181H87ZM302 45Q343 45 376 65T428 128T448 236V262Q448 338 429 382T376
447T302 467Q262 467 229 448T175 385T154 263V236Q154 170 174 128T228 65T302 45Z" />
<glyph unicode="q" horiz-adv-x="586" d="M429 -180V69Q405 34 364 12T270 -10Q214 -10 168 18T95 103T67 241V252Q67 346 95 405T169 493T272 521Q331 521 374 498T445 428L470 511H496V-180H429ZM282 45Q323 45 356 65T410 127T430 236V262Q430 340 410 384T356
448T282 467Q242 467 209 447T156 383T136 262V236Q136 170 155 128T208 65T282 45Z" />
<glyph unicode="r" horiz-adv-x="484" d="M88 0V511H136L148 435Q148 436 155 449T179 479T223 508T292 521Q347 521 382 498T435 437T453 354Q453 344 452 336T451 325H391V342Q391 368 381 396T346 444T275 464Q241 464 218 450T182 414T162 368T156 325V0H88Z" />
<glyph unicode="s" horiz-adv-x="537" d="M260 -10Q203 -10 164 4T101 40T67 87T56 134Q56 141 56 145T57 158H119Q118 154 118 152T118 145Q118 113 138 91T193 56T276 44Q318 44 349 56T397 88T414 137Q414 169 396 187T347 215T280 231T206 246T139 269T90
309T71 378Q71 408 83 434T122 480T185 510T272 521H279Q327 521 362 509T421 476T455 431T467 383Q467 379 467 374T466 368H403V380Q403 389 399 403T382 432T341 457T266 467Q222 467 196 458T157 434T140 406T136 382Q136 355 154 339T203 313T270 296T344
280T411 257T460 216T479 149Q479 105 463 75T418 26T352 -1T270 -10H260Z" />
<glyph unicode="t" horiz-adv-x="354" d="M217 -10Q185 -10 160 1T120 38T106 104V454H50V511H107L130 674H173V511H292V454H173V112Q173 68 191 56T230 44Q241 44 260 49T292 60V8Q283 2 270 -2T244 -8T217 -10Z" />
<glyph unicode="u" horiz-adv-x="619" d="M262 -10Q183 -10 133 34T83 175V511H151V193Q151 115 183 81T278 47Q320 47 354 66T409 120T430 196V511H497V78Q497 60 504 52T523 44Q534 44 548 48T573 60V10Q560 0 543 -5T505 -10Q475 -10 460 2T439 34T432 76Q406
36 359 13T262 -10Z" />
<glyph unicode="v" horiz-adv-x="517" d="M225 0L24 511H96L260 90H263L428 511H493L291 0H225Z" />
<glyph unicode="w" horiz-adv-x="816" d="M201 0L27 511H97L232 111H236L372 511H446L582 111H585L721 511H785L611 0H551L407 420H405L262 0H201Z" />
<glyph unicode="x" horiz-adv-x="526" d="M35 0L223 263L44 511H126L265 313H266L406 511H481L303 262L491 0H409L261 212H260L110 0H35Z" />
<glyph unicode="y" horiz-adv-x="517" d="M126 -186Q108 -186 92 -183T59 -172V-115Q70 -119 85 -124T115 -129Q141 -129 157 -118T189 -76T226 8L24 511H96L259 95H264L427 511H493L294 16Q273 -39 252 -85T202 -158T126 -186Z" />
<glyph unicode="z" horiz-adv-x="467" d="M48 0V28L315 456H64V511H410V483L142 55H418V0H48Z" />
<glyph unicode="{" horiz-adv-x="318" d="M257 -159Q223 -160 191 -150T137 -114T115 -47V167Q115 198 90 211T38 224V303Q65 302 90 315T115 360V574Q115 617 136 641T190 676T257 686V645Q243 645 225 640T193 623T178 588L171 371Q170 322 153 295T86 268V259Q136
259 153 232T171 156L178 -60Q179 -83 192 -95T224 -113T257 -118V-159Z" />
<glyph unicode="|" horiz-adv-x="246" d="M93 -199V720H153V-199H93Z" />
<glyph unicode="}" horiz-adv-x="318" d="M38 -159V-118Q52 -118 70 -113T103 -96T117 -60L124 156Q126 205 142 232T209 259V268Q159 268 143 295T124 371L117 588Q117 610 103 622T71 640T38 645V686Q72 687 104 677T158 642T180 574V360Q180 329 205 316T257
303V224Q230 225 205 212T180 167V-47Q180 -89 159 -114T105 -149T38 -159Z" />
<glyph unicode="~" horiz-adv-x="685" d="M62 220V288Q63 289 75 301T110 328T161 354T225 366Q257 366 286 356T343 333T400 310T463 300Q498 300 527 311T578 337T612 364T626 378V310Q625 309 613 297T578 270T527 244T463 232Q431 232 402 242T345 265T288
288T225 298Q190 298 161 287T110 261T76 234T62 220Z" />
<glyph unicode="&#xa0;" horiz-adv-x="238" />
<glyph unicode="&#xa1;" horiz-adv-x="259" d="M155 359L171 -176H88L105 359H155ZM169 510V429H90V510H169Z" />
<glyph unicode="&#xa2;" horiz-adv-x="533" d="M238 -6L247 79Q188 84 143 114T72 201T46 334V352Q46 430 71 486T142 573T247 609L238 693H296L286 608Q340 604 381 579T447 508T471 401H408Q408 453 389 487T338 538T267 555Q202 555 159 507T115 364V323Q115
227 159 180T268 132Q308 132 339 148T390 198T409 286H471Q471 223 447 178T381 108T286 79L297 -6H238Z" />
<glyph unicode="&#xa3;" horiz-adv-x="605" d="M67 0V59H164V309H67V368H164V521Q164 579 191 618T263 679T364 700Q419 700 463 679T534 619T560 521V501H494V515Q494 581 456 611T364 641Q309 641 272 611T234 515V368H460V309H233L223 59H539V0H67Z" />
<glyph unicode="&#xa4;" horiz-adv-x="622" d="M104 85L60 130L115 184Q88 215 76 254T63 336Q63 378 75 418T115 489L60 543L104 588L160 532Q191 558 230 571T311 584Q353 584 392 571T461 532L518 588L562 543L507 489Q534 459 546 419T559 336Q559 295 547
255T507 184L562 130L518 86L462 142Q432 115 393 102T311 88Q269 88 230 101T160 142L104 85ZM311 143Q363 143 407 169T476 239T502 336Q502 390 477 433T407 503T311 529Q259 529 216 503T146 434T119 336Q119 283 145 239T215 169T311 143Z" />
<glyph unicode="&#xa5;" horiz-adv-x="643" d="M270 0V245H54V298H251L202 382H54V436H171L26 686H108L307 337H310L512 686H585L439 436H557V382H408L359 298H557V245H341V0H270Z" />
<glyph unicode="&#xa6;" horiz-adv-x="246" d="M93 360V720H153V360H93ZM93 -200V160H153V-200H93Z" />
<glyph unicode="&#xa7;" horiz-adv-x="520" d="M255 -185Q206 -185 170 -173T111 -140T75 -95T63 -45Q63 -41 63 -37T64 -32H127V-44Q127 -53 131 -67T149 -96T189 -121T263 -131Q308 -131 334 -121T373 -94T389 -62T393 -36Q393 -1 369 23T305 68T222 106T139
146T75 196T50 267Q50 316 74 349T150 410Q113 433 88 465T63 544Q63 577 75 604T113 652T176 684T263 696H267Q316 696 351 684T410 651T445 607T457 556Q457 553 457 548T456 543H394V555Q394 564 390 578T372 607T332 632T258 642Q213 642 187 632T148 606T131
574T127 547Q127 512 152 488T216 443T298 405T381 366T445 315T470 245Q470 195 446 162T370 101Q408 79 433 47T458 -33Q458 -66 446 -93T408 -141T345 -173T257 -185H255ZM329 123Q345 131 363 144T395 178T409 229Q409 260 389 282T336 321T265 354T192 387Q175
379 157 366T126 333T113 282Q113 250 133 228T185 189T256 156T329 123Z" />
<glyph unicode="&#xa8;" horiz-adv-x="580" d="M147 618V700H222V618H147ZM359 618V700H433V618H359Z" />
<glyph unicode="&#xa9;" horiz-adv-x="779" d="M390 -10Q316 -10 252 17T140 93T64 206T36 344Q36 417 63 481T139 593T252 668T390 696Q463 696 527 669T640 593T716 481T744 344Q744 270 717 206T640 94T527 18T390 -10ZM390 20Q457 20 515 45T617 114T687 217T712
344Q712 412 687 470T618 572T515 641T390 666Q322 666 264 641T161 572T92 470T67 344Q67 276 92 218T161 115T263 45T390 20ZM393 129Q347 129 310 146T250 200T227 296V391Q227 450 249 486T309 540T392 558Q439 558 475 541T533 487T555 393H510Q510 454 479
484T393 515Q345 515 311 487T277 401V287Q277 227 311 200T393 172Q446 172 478 202T511 294H555Q555 237 534 201T476 147T393 129Z" />
<glyph unicode="&#xaa;" horiz-adv-x="416" d="M163 373Q138 373 115 381T77 408T62 464Q62 509 88 530T161 558T267 565V596Q267 629 251 642T197 656Q165 656 143 644T121 602V594H74Q73 597 73 602T72 608Q72 651 107 674T195 697H202Q260 697 287 673T315
602V430Q315 422 319 418T327 414Q333 414 342 418T361 427V387Q352 381 341 377T316 373Q292 373 281 386T268 422Q249 397 224 385T163 373ZM174 414Q209 414 238 437T267 510V526Q220 526 185 523T130 506T111 464Q111 438 126 426T174 414Z" />
<glyph unicode="&#xab;" horiz-adv-x="458" d="M352 163L229 337L352 511H397L301 337L397 163H352ZM170 163L47 337L170 511H214L119 337L214 163H170Z" />
<glyph unicode="&#xac;" horiz-adv-x="618" d="M483 181V371H37V441H552V181H483Z" />
<glyph unicode="&#xad;" horiz-adv-x="387" d="M67 235V304H320V235H67Z" />
<glyph unicode="&#xae;" horiz-adv-x="779" d="M390 -10Q316 -10 252 17T140 93T64 206T36 344Q36 417 63 481T139 593T252 668T390 696Q463 696 527 669T640 593T716 481T744 344Q744 270 717 206T640 94T527 18T390 -10ZM390 20Q457 20 515 45T617 114T687 217T712
344Q712 412 687 470T618 572T515 641T390 666Q322 666 264 641T161 572T92 470T67 344Q67 276 92 218T161 115T263 45T390 20ZM540 134Q528 134 516 139T495 162T486 214Q486 263 473 286T444 316T415 324H300V135H250V547H426Q471 547 506 519T541 443Q541 411
523 385T477 346Q488 341 501 329T524 293T534 230Q534 209 535 194T543 169T565 153V138Q563 137 555 136T540 134ZM300 365H423Q454 365 474 386T494 437Q494 466 474 485T423 505H300V365Z" />
<glyph unicode="&#xaf;" horiz-adv-x="580" d="M139 630V679H442V630H139Z" />
<glyph unicode="&#xb0;" horiz-adv-x="390" d="M195 396Q154 396 120 416T66 470T45 546Q45 587 65 621T119 675T195 696Q236 696 270 676T324 621T345 546Q345 505 325 471T270 416T195 396ZM195 444Q237 444 266 473T296 545Q296 587 267 616T195 646Q153 646
124 617T94 545Q94 503 123 474T195 444Z" />
<glyph unicode="&#xb1;" horiz-adv-x="616" d="M275 125V285H52V350H275V511H341V350H564V285H341V125H275ZM57 0V66H559V0H57Z" />
<glyph unicode="&#xb2;" horiz-adv-x="383" d="M59 422V441Q59 475 74 497T116 537L223 610Q240 621 253 639T266 685Q266 719 246 740T189 762Q154 762 132 740T109 683Q109 679 109 675T110 665H63Q62 668 62 673T62 679Q62 735 99 770T190 805Q249 805 282
772T315 687Q315 644 295 618T249 573L142 502Q128 492 122 483T116 466H316V422H59Z" />
<glyph unicode="&#xb3;" horiz-adv-x="362" d="M179 413Q121 413 85 442T49 521V536H95V521Q95 490 118 472T178 454Q215 454 238 471T262 522Q262 558 238 574T180 591H132V632H176Q208 632 231 647T254 695Q254 728 232 743T179 759Q146 759 125 742T103 695V684H57V697Q57
746 92 773T179 801Q231 801 266 775T302 697Q302 663 285 643T251 614Q277 603 293 580T310 521Q310 471 272 442T179 413Z" />
<glyph unicode="&#xb4;" horiz-adv-x="580" d="M215 591L291 750H365L366 747L272 591H215Z" />
<glyph unicode="&#xb5;" horiz-adv-x="616" d="M79 -161V511H146V187Q146 117 182 82T280 47Q322 47 355 66T407 120T426 196V511H493V78Q493 60 500 52T518 44Q529 44 543 48T569 60V10Q556 0 539 -5T501 -10Q471 -10 455 2T434 34T428 76Q403 37 363 14T273
-9Q235 -9 199 4T140 45Q141 43 144 26T147 -7V-161H79Z" />
<glyph unicode="&#xb6;" horiz-adv-x="531" d="M232 -172V250Q178 257 135 287T68 364T43 466Q43 534 72 583T151 659T261 686H482V634H416V-172H360V634H288V-172H232Z" />
<glyph unicode="&#xb7;" horiz-adv-x="241" d="M81 248V329H160V248H81Z" />
<glyph unicode="&#xb8;" horiz-adv-x="580" d="M273 -207Q252 -207 230 -204T190 -192L193 -145Q203 -151 220 -155T264 -160Q291 -160 313 -150T336 -109Q336 -86 318 -75T280 -64H259V-27H283Q310 -27 335 -35T375 -62T391 -117Q391 -153 371 -172T324 -199T273 -207Z" />
<glyph unicode="&#xb9;" horiz-adv-x="335" d="M49 422V465H149V737H49V770Q82 772 109 777T174 797H198V465H275V422H49Z" />
<glyph unicode="&#xba;" horiz-adv-x="394" d="M196 377Q136 377 99 418T61 533V542Q61 617 99 657T197 698Q258 698 295 658T333 542V533Q333 458 295 418T196 377ZM196 417Q233 417 258 444T283 526V549Q283 604 258 630T196 657Q161 657 136 631T111 549V526Q111
471 136 444T196 417Z" />
<glyph unicode="&#xbb;" horiz-adv-x="458" d="M54 163L150 337L54 511H99L222 337L99 163H54ZM237 163L332 337L237 511H281L404 337L281 163H237Z" />
<glyph unicode="&#xbc;" horiz-adv-x="854" d="M49 568V611H149V883H49V916Q82 918 109 923T174 943H198V611H275V568H49ZM175 0L595 686H644L227 0H175ZM701 0V96H523V135Q531 146 546 172T580 234T615 307T643 375H692Q682 344 668 310T637 243T604 183T574
138H701V260Q705 267 709 276T718 295T725 314H748V138H792V96H748V0H701Z" />
<glyph unicode="&#xbd;" horiz-adv-x="866" d="M49 568V611H149V883H49V916Q82 918 109 923T174 943H198V611H275V568H49ZM175 0L595 686H644L227 0H175ZM542 1V20Q542 54 557 76T599 116L706 189Q723 200 736 218T749 264Q749 298 729 319T672 341Q637 341 615
319T592 262Q592 258 592 254T593 244H546Q545 247 545 252T545 258Q545 314 582 349T673 384Q732 384 765 351T798 266Q798 223 778 197T732 152L625 81Q611 71 605 62T599 45H799V1H542Z" />
<glyph unicode="&#xbe;" horiz-adv-x="881" d="M179 564Q121 564 85 593T49 672V687H95V672Q95 641 118 623T178 605Q215 605 238 622T262 673Q262 709 238 725T180 742H132V783H176Q208 783 231 798T254 846Q254 879 232 894T179 910Q146 910 125 893T103 846V835H57V848Q57
897 92 924T179 952Q231 952 266 926T302 848Q302 814 285 794T251 765Q277 754 293 731T310 672Q310 622 272 593T179 564ZM202 0L622 686H671L254 0H202ZM729 0V96H551V135Q559 146 574 172T608 234T643 307T671 375H720Q710 344 696 310T665 243T632 183T602
138H729V260Q733 267 737 276T746 295T753 314H776V138H820V96H776V0H729Z" />
<glyph unicode="&#xbf;" horiz-adv-x="504" d="M279 339V260Q279 225 263 201T224 156T178 113T140 64T124 -5Q124 -43 138 -70T181 -112T255 -127Q303 -127 331 -110T373 -68T392 -20T396 16Q396 27 395 37T393 48H462Q462 46 463 38T465 17Q465 2 460 -22T442
-75T405 -129T342 -170T249 -186Q194 -186 157 -171T96 -129T63 -70T52 -4Q52 45 68 78T108 134T155 178T195 220T212 276V339H279ZM285 511V429H206V511H285Z" />
<glyph unicode="&#xc0;" horiz-adv-x="658" d="M15 0L293 686H366L644 0H567L500 165H154L87 0H15ZM177 224H476L329 597H325L177 224ZM556 756L438 888V891H515L619 756H556Z" />
<glyph unicode="&#xc1;" horiz-adv-x="658" d="M15 0L293 686H366L644 0H567L500 165H154L87 0H15ZM177 224H476L329 597H325L177 224ZM298 756L401 891H479V888L360 756H298Z" />
<glyph unicode="&#xc2;" horiz-adv-x="658" d="M15 0L293 686H366L644 0H567L500 165H154L87 0H15ZM177 224H476L329 597H325L177 224ZM170 761L291 884H366L486 761H412L316 860H341L244 761H170Z" />
<glyph unicode="&#xc3;" horiz-adv-x="658" d="M15 0L293 686H366L644 0H567L500 165H154L87 0H15ZM177 224H476L329 597H325L177 224ZM162 775Q164 798 174 820T204 856T256 871Q287 871 312 861T360 839T403 828Q424 828 436 839T452 871H495Q494 849 484 827T453
790T402 775Q372 775 346 786T298 808T254 819Q232 819 221 808T205 775H162Z" />
<glyph unicode="&#xc4;" horiz-adv-x="658" d="M15 0L293 686H366L644 0H567L500 165H154L87 0H15ZM177 224H476L329 597H325L177 224ZM185 780V862H260V780H185ZM397 780V862H471V780H397Z" />
<glyph unicode="&#xc5;" horiz-adv-x="658" d="M15 0L293 686H366L644 0H567L500 165H154L87 0H15ZM177 224H476L329 597H325L177 224ZM328 730Q286 730 257 758T227 829Q227 872 256 901T329 931Q370 931 399 902T429 830Q429 789 400 760T328 730ZM328 770Q354
770 370 787T386 830Q386 856 370 873T328 890Q303 890 287 873T270 830Q270 804 287 787T328 770Z" />
<glyph unicode="&#xc6;" horiz-adv-x="979" d="M14 0L389 686H921L908 626H474L540 380H872V320H556L626 61H920L930 0H570L526 165H181L91 0H14ZM213 224H510L411 593L407 592L213 224Z" />
<glyph unicode="&#xc7;" horiz-adv-x="665" d="M334 -10Q279 -10 232 5T149 58T94 161T74 326V361Q74 460 95 525T153 627T238 680T341 696H349Q398 696 443 684T523 641T578 559T599 431H530Q530 513 505 557T436 619T341 636Q299 636 264 625T202 585T162 505T147
376V310Q147 206 170 150T237 72T339 50Q391 50 434 67T504 129T531 254H599Q599 182 578 131T521 49T438 4T342 -10H334ZM317 -207Q296 -207 274 -204T234 -192L237 -145Q247 -151 264 -155T308 -160Q335 -160 357 -150T380 -109Q380 -86 362 -75T324 -64H303V-27H327Q354
-27 379 -35T419 -62T435 -117Q435 -153 415 -172T368 -199T317 -207Z" />
<glyph unicode="&#xc8;" horiz-adv-x="594" d="M102 0V686H536L525 626H173V380H487V320H173V60H533L545 0H102ZM543 756L425 888V891H502L606 756H543Z" />
<glyph unicode="&#xc9;" horiz-adv-x="594" d="M102 0V686H536L525 626H173V380H487V320H173V60H533L545 0H102ZM285 756L388 891H466V888L347 756H285Z" />
<glyph unicode="&#xca;" horiz-adv-x="594" d="M102 0V686H536L525 626H173V380H487V320H173V60H533L545 0H102ZM157 761L278 884H353L473 761H399L303 860H328L231 761H157Z" />
<glyph unicode="&#xcb;" horiz-adv-x="594" d="M102 0V686H536L525 626H173V380H487V320H173V60H533L545 0H102ZM172 780V862H247V780H172ZM384 780V862H458V780H384Z" />
<glyph unicode="&#xcc;" horiz-adv-x="373" d="M72 0V60H151V626H72V686H302V626H222V60H302V0H72ZM159 756L41 888V891H118L222 756H159Z" />
<glyph unicode="&#xcd;" horiz-adv-x="373" d="M72 0V60H151V626H72V686H302V626H222V60H302V0H72ZM413 756L516 891H594V888L475 756H413Z" />
<glyph unicode="&#xce;" horiz-adv-x="373" d="M72 0V60H151V626H72V686H302V626H222V60H302V0H72ZM285 761L406 884H481L601 761H527L431 860H456L359 761H285Z" />
<glyph unicode="&#xcf;" horiz-adv-x="373" d="M72 0V60H151V626H72V686H302V626H222V60H302V0H72ZM300 780V862H375V780H300ZM512 780V862H586V780H512Z" />
<glyph unicode="&#xd0;" horiz-adv-x="675" d="M102 0V686H331Q387 686 436 671T522 620T580 522T601 367V335Q601 243 581 179T523 75T436 18T331 0H102ZM173 60H329Q385 60 430 83T501 163T528 320V377Q528 475 502 529T430 604T329 626H173V60ZM291 578V629H595V578H291Z"
/>
<glyph unicode="&#xd1;" horiz-adv-x="693" d="M102 0V686H162L483 197L525 130L528 131V686H592V0H529L200 504L169 555H166V0H102ZM179 775Q181 798 191 820T221 856T273 871Q304 871 329 861T377 839T420 828Q441 828 453 839T469 871H512Q511 849 501 827T470
790T419 775Q389 775 363 786T315 808T271 819Q249 819 238 808T222 775H179Z" />
<glyph unicode="&#xd2;" horiz-adv-x="693" d="M341 -10Q286 -10 237 6T152 60T95 163T74 326V360Q74 459 95 524T155 626T241 680T343 696H352Q408 696 456 680T542 626T599 523T620 360V326Q620 227 598 162T539 60T453 6T350 -10H341ZM347 50Q388 50 424 61T488
101T531 181T547 310V376Q547 454 532 505T489 584T425 624T347 636Q305 636 269 625T206 585T163 505T147 376V310Q147 232 162 181T205 102T269 62T347 50ZM319 756L201 888V891H278L382 756H319Z" />
<glyph unicode="&#xd3;" horiz-adv-x="693" d="M341 -10Q286 -10 237 6T152 60T95 163T74 326V360Q74 459 95 524T155 626T241 680T343 696H352Q408 696 456 680T542 626T599 523T620 360V326Q620 227 598 162T539 60T453 6T350 -10H341ZM347 50Q388 50 424 61T488
101T531 181T547 310V376Q547 454 532 505T489 584T425 624T347 636Q305 636 269 625T206 585T163 505T147 376V310Q147 232 162 181T205 102T269 62T347 50ZM316 756L419 891H497V888L378 756H316Z" />
<glyph unicode="&#xd4;" horiz-adv-x="693" d="M341 -10Q286 -10 237 6T152 60T95 163T74 326V360Q74 459 95 524T155 626T241 680T343 696H352Q408 696 456 680T542 626T599 523T620 360V326Q620 227 598 162T539 60T453 6T350 -10H341ZM347 50Q388 50 424 61T488
101T531 181T547 310V376Q547 454 532 505T489 584T425 624T347 636Q305 636 269 625T206 585T163 505T147 376V310Q147 232 162 181T205 102T269 62T347 50ZM188 761L309 884H384L504 761H430L334 860H359L262 761H188Z" />
<glyph unicode="&#xd5;" horiz-adv-x="693" d="M341 -10Q286 -10 237 6T152 60T95 163T74 326V360Q74 459 95 524T155 626T241 680T343 696H352Q408 696 456 680T542 626T599 523T620 360V326Q620 227 598 162T539 60T453 6T350 -10H341ZM347 50Q388 50 424 61T488
101T531 181T547 310V376Q547 454 532 505T489 584T425 624T347 636Q305 636 269 625T206 585T163 505T147 376V310Q147 232 162 181T205 102T269 62T347 50ZM180 775Q182 798 192 820T222 856T274 871Q305 871 330 861T378 839T421 828Q442 828 454 839T470 871H513Q512
849 502 827T471 790T420 775Q390 775 364 786T316 808T272 819Q250 819 239 808T223 775H180Z" />
<glyph unicode="&#xd6;" horiz-adv-x="693" d="M341 -10Q286 -10 237 6T152 60T95 163T74 326V360Q74 459 95 524T155 626T241 680T343 696H352Q408 696 456 680T542 626T599 523T620 360V326Q620 227 598 162T539 60T453 6T350 -10H341ZM347 50Q388 50 424 61T488
101T531 181T547 310V376Q547 454 532 505T489 584T425 624T347 636Q305 636 269 625T206 585T163 505T147 376V310Q147 232 162 181T205 102T269 62T347 50ZM203 780V862H278V780H203ZM415 780V862H489V780H415Z" />
<glyph unicode="&#xd7;" horiz-adv-x="615" d="M150 51L103 98L261 255L103 413L150 460L307 302L465 460L512 413L354 255L511 98L464 51L307 209L150 51Z" />
<glyph unicode="&#xd8;" horiz-adv-x="693" d="M341 -10Q286 -10 237 6T152 60T95 163T74 326V360Q74 459 95 524T155 626T241 680T343 696H352Q408 696 456 680T542 626T599 523T620 360V326Q620 227 598 162T539 60T453 6T350 -10H341ZM347 50Q388 50 424 61T488
101T531 181T547 310V376Q547 454 532 505T489 584T425 624T347 636Q305 636 269 625T206 585T163 505T147 376V310Q147 232 162 181T205 102T269 62T347 50ZM70 176L560 995H611L122 176H70Z" />
<glyph unicode="&#xd9;" horiz-adv-x="680" d="M334 -10Q262 -10 209 18T126 98T96 220V686H167V222Q167 145 212 98T339 50Q423 50 468 98T513 222V686H584V220Q584 152 554 100T470 19T344 -10H334ZM569 756L451 888V891H528L632 756H569Z" />
<glyph unicode="&#xda;" horiz-adv-x="680" d="M334 -10Q262 -10 209 18T126 98T96 220V686H167V222Q167 145 212 98T339 50Q423 50 468 98T513 222V686H584V220Q584 152 554 100T470 19T344 -10H334ZM311 756L414 891H492V888L373 756H311Z" />
<glyph unicode="&#xdb;" horiz-adv-x="680" d="M334 -10Q262 -10 209 18T126 98T96 220V686H167V222Q167 145 212 98T339 50Q423 50 468 98T513 222V686H584V220Q584 152 554 100T470 19T344 -10H334ZM183 761L304 884H379L499 761H425L329 860H354L257 761H183Z" />
<glyph unicode="&#xdc;" horiz-adv-x="680" d="M334 -10Q262 -10 209 18T126 98T96 220V686H167V222Q167 145 212 98T339 50Q423 50 468 98T513 222V686H584V220Q584 152 554 100T470 19T344 -10H334ZM198 780V862H273V780H198ZM410 780V862H484V780H410Z" />
<glyph unicode="&#xdd;" horiz-adv-x="580" d="M254 0V266L10 686H92L291 337H294L496 686H569L325 266V0H254ZM264 756L367 891H445V888L326 756H264Z" />
<glyph unicode="&#xde;" horiz-adv-x="635" d="M102 0V686H173V555H395Q451 555 493 531T558 465T581 370Q581 317 558 272T493 200T394 172H173V0H102ZM173 232H382Q443 232 477 271T512 366Q512 422 478 458T382 495H173V232Z" />
<glyph unicode="&#xdf;" horiz-adv-x="618" d="M118 -66V454H62V511H118Q119 578 147 626T224 701T337 728Q380 728 416 715T480 676T522 618T537 544Q537 510 524 479T488 424T436 389L438 386Q491 366 525 316T560 205Q560 147 531 101T452 27T341 0H253V57H338Q381
57 416 77T471 131T492 207Q492 248 472 282T416 336T338 357H253V411H328Q367 411 399 428T451 475T471 540Q471 576 454 606T407 653T337 671Q267 671 226 628T185 514V-66H118Z" />
<glyph unicode="&#xe0;" horiz-adv-x="589" d="M216 -10Q175 -10 138 2T78 46T54 132Q54 187 79 220T151 271T261 293T401 298V358Q401 420 372 443T275 467Q219 467 179 445T139 370V355H74Q73 361 73 367T72 380Q72 424 99 456T171 504T274 521H281Q375 521
421 483T468 369V78Q468 60 475 52T493 44Q504 44 518 48T543 60V10Q530 0 513 -5T475 -10Q445 -10 429 3T408 38T402 87Q372 37 325 14T216 -10ZM236 44Q276 44 314 62T376 117T401 212V247Q316 247 254 241T157 211T123 135Q123 88 150 66T236 44ZM498 591L405
747V750H480L556 591H498Z" />
<glyph unicode="&#xe1;" horiz-adv-x="589" d="M216 -10Q175 -10 138 2T78 46T54 132Q54 187 79 220T151 271T261 293T401 298V358Q401 420 372 443T275 467Q219 467 179 445T139 370V355H74Q73 361 73 367T72 380Q72 424 99 456T171 504T274 521H281Q375 521
421 483T468 369V78Q468 60 475 52T493 44Q504 44 518 48T543 60V10Q530 0 513 -5T475 -10Q445 -10 429 3T408 38T402 87Q372 37 325 14T216 -10ZM236 44Q276 44 314 62T376 117T401 212V247Q316 247 254 241T157 211T123 135Q123 88 150 66T236 44ZM239 591L315
750H389L390 747L296 591H239Z" />
<glyph unicode="&#xe2;" horiz-adv-x="589" d="M216 -10Q175 -10 138 2T78 46T54 132Q54 187 79 220T151 271T261 293T401 298V358Q401 420 372 443T275 467Q219 467 179 445T139 370V355H74Q73 361 73 367T72 380Q72 424 99 456T171 504T274 521H281Q375 521
421 483T468 369V78Q468 60 475 52T493 44Q504 44 518 48T543 60V10Q530 0 513 -5T475 -10Q445 -10 429 3T408 38T402 87Q372 37 325 14T216 -10ZM236 44Q276 44 314 62T376 117T401 212V247Q316 247 254 241T157 211T123 135Q123 88 150 66T236 44ZM367 592L491
751H559L684 592H616L505 733H546L434 592H367Z" />
<glyph unicode="&#xe3;" horiz-adv-x="589" d="M216 -10Q175 -10 138 2T78 46T54 132Q54 187 79 220T151 271T261 293T401 298V358Q401 420 372 443T275 467Q219 467 179 445T139 370V355H74Q73 361 73 367T72 380Q72 424 99 456T171 504T274 521H281Q375 521
421 483T468 369V78Q468 60 475 52T493 44Q504 44 518 48T543 60V10Q530 0 513 -5T475 -10Q445 -10 429 3T408 38T402 87Q372 37 325 14T216 -10ZM236 44Q276 44 314 62T376 117T401 212V247Q316 247 254 241T157 211T123 135Q123 88 150 66T236 44ZM358 612Q359
637 369 662T400 703T453 720Q484 720 509 707T557 679T600 665Q622 665 634 679T650 720H693Q692 695 682 670T651 628T599 612Q569 612 543 626T495 654T451 668Q429 668 417 653T400 612H358Z" />
<glyph unicode="&#xe4;" horiz-adv-x="589" d="M216 -10Q175 -10 138 2T78 46T54 132Q54 187 79 220T151 271T261 293T401 298V358Q401 420 372 443T275 467Q219 467 179 445T139 370V355H74Q73 361 73 367T72 380Q72 424 99 456T171 504T274 521H281Q375 521
421 483T468 369V78Q468 60 475 52T493 44Q504 44 518 48T543 60V10Q530 0 513 -5T475 -10Q445 -10 429 3T408 38T402 87Q372 37 325 14T216 -10ZM236 44Q276 44 314 62T376 117T401 212V247Q316 247 254 241T157 211T123 135Q123 88 150 66T236 44ZM382 618V700H457V618H382ZM594
618V700H668V618H594Z" />
<glyph unicode="&#xe5;" horiz-adv-x="589" d="M216 -10Q175 -10 138 2T78 46T54 132Q54 187 79 220T151 271T261 293T401 298V358Q401 420 372 443T275 467Q219 467 179 445T139 370V355H74Q73 361 73 367T72 380Q72 424 99 456T171 504T274 521H281Q375 521
421 483T468 369V78Q468 60 475 52T493 44Q504 44 518 48T543 60V10Q530 0 513 -5T475 -10Q445 -10 429 3T408 38T402 87Q372 37 325 14T216 -10ZM236 44Q276 44 314 62T376 117T401 212V247Q316 247 254 241T157 211T123 135Q123 88 150 66T236 44ZM525 583Q483
583 454 611T424 682Q424 725 453 754T526 784Q567 784 596 756T626 684Q626 642 597 613T525 583ZM525 624Q551 624 567 641T583 684Q583 709 567 726T525 743Q499 743 483 726T467 683Q467 658 483 641T525 624Z" />
<glyph unicode="&#xe6;" horiz-adv-x="895" d="M218 -10Q177 -10 140 2T78 46T54 132Q54 187 79 220T151 271T261 293T401 298V358Q401 420 372 443T275 467Q219 467 179 445T138 370V355H74Q73 361 73 367T72 380Q72 424 98 456T171 504T274 521H281Q349 521
391 500T451 434Q480 476 522 498T619 521H625Q682 521 728 497T801 425T828 312V248H469Q469 182 487 137T540 68T622 44Q660 44 692 60T743 108T763 189H827Q827 127 801 83T728 14T626 -10H620Q554 -10 505 22T429 114Q409 69 375 42T300 2T218 -10ZM236 44Q276
44 314 62T376 117T401 212V247Q316 247 254 241T157 211T123 135Q123 88 149 66T236 44ZM470 298H761Q761 384 724 425T620 467Q560 467 518 425T470 298Z" />
<glyph unicode="&#xe7;" horiz-adv-x="550" d="M281 -10Q218 -10 170 21T94 109T67 247V265Q67 325 83 372T128 453T197 504T285 521H290Q348 521 393 497T465 426T492 313H429Q429 365 410 399T359 450T288 467Q223 467 180 420T136 277V235Q136 139 179 92T289
44Q328 44 360 60T411 111T430 198H492Q492 132 465 85T391 14T287 -10H281ZM528 -207Q507 -207 485 -204T445 -192L448 -145Q458 -151 475 -155T519 -160Q546 -160 568 -150T591 -109Q591 -86 573 -75T535 -64H514V-27H538Q565 -27 590 -35T630 -62T646 -117Q646
-153 626 -172T579 -199T528 -207Z" />
<glyph unicode="&#xe8;" horiz-adv-x="561" d="M283 -10Q219 -10 170 20T94 107T66 247V264Q66 347 94 404T173 491T287 521H293Q350 521 395 497T467 425T494 312V248H135Q135 182 153 137T206 68T288 44Q326 44 358 60T409 108T429 189H494Q494 127 466 83T392
14T289 -10H283ZM136 298H428Q428 384 391 425T287 467Q226 467 184 425T136 298ZM517 591L424 747V750H499L575 591H517Z" />
<glyph unicode="&#xe9;" horiz-adv-x="561" d="M283 -10Q219 -10 170 20T94 107T66 247V264Q66 347 94 404T173 491T287 521H293Q350 521 395 497T467 425T494 312V248H135Q135 182 153 137T206 68T288 44Q326 44 358 60T409 108T429 189H494Q494 127 466 83T392
14T289 -10H283ZM136 298H428Q428 384 391 425T287 467Q226 467 184 425T136 298ZM258 591L334 750H408L409 747L315 591H258Z" />
<glyph unicode="&#xea;" horiz-adv-x="561" d="M283 -10Q219 -10 170 20T94 107T66 247V264Q66 347 94 404T173 491T287 521H293Q350 521 395 497T467 425T494 312V248H135Q135 182 153 137T206 68T288 44Q326 44 358 60T409 108T429 189H494Q494 127 466 83T392
14T289 -10H283ZM136 298H428Q428 384 391 425T287 467Q226 467 184 425T136 298ZM386 592L510 751H578L703 592H635L524 733H565L453 592H386Z" />
<glyph unicode="&#xeb;" horiz-adv-x="561" d="M283 -10Q219 -10 170 20T94 107T66 247V264Q66 347 94 404T173 491T287 521H293Q350 521 395 497T467 425T494 312V248H135Q135 182 153 137T206 68T288 44Q326 44 358 60T409 108T429 189H494Q494 127 466 83T392
14T289 -10H283ZM136 298H428Q428 384 391 425T287 467Q226 467 184 425T136 298ZM401 618V700H476V618H401ZM613 618V700H687V618H613Z" />
<glyph unicode="&#xec;" horiz-adv-x="257" d="M95 0V511H163V0H95ZM101 591L8 747V750H83L159 591H101Z" />
<glyph unicode="&#xed;" horiz-adv-x="257" d="M95 0V511H163V0H95ZM355 591L431 750H505L506 747L412 591H355Z" />
<glyph unicode="&#xee;" horiz-adv-x="257" d="M95 0V511H163V0H95ZM-3 592L96 751H162L261 592H200L110 733H147L58 592H-3Z" />
<glyph unicode="&#xef;" horiz-adv-x="257" d="M95 0V511H163V0H95ZM7 618V700H82V618H7ZM177 618V700H252V618H177Z" />
<glyph unicode="&#xf0;" horiz-adv-x="580" d="M287 -10Q223 -10 174 20T96 109T67 248V263Q67 340 94 398T168 488T277 521Q296 521 316 518T355 508Q332 537 304 564T247 616L149 568L120 594L218 641Q193 661 170 677T127 705L173 726Q196 712 220 697T268
665L368 713L394 687L300 641Q358 596 407 538T484 411T513 263V248Q513 167 485 110T408 21T295 -10H287ZM290 44Q333 44 368 65T424 129T445 235V276Q445 340 424 382T368 446T290 468Q247 468 212 447T157 383T136 276V235Q136 172 156 129T212 65T290 44Z"
/>
<glyph unicode="&#xf1;" horiz-adv-x="594" d="M88 0V511H135L147 435Q174 477 220 499T317 521Q370 521 411 501T477 439T501 334V0H434V323Q434 399 400 432T302 465Q260 465 227 445T175 392T156 315V0H88ZM124 612Q125 637 135 662T166 703T219 720Q250 720
275 707T323 679T366 665Q388 665 400 679T416 720H459Q458 695 448 670T417 628T365 612Q335 612 309 626T261 654T217 668Q195 668 183 653T166 612H124Z" />
<glyph unicode="&#xf2;" horiz-adv-x="580" d="M286 -10Q223 -10 174 20T96 109T67 248V263Q67 346 96 403T175 491T288 521H294Q358 521 407 491T485 403T513 263V248Q513 167 484 109T406 21T292 -10H286ZM290 44Q333 44 368 65T424 129T445 235V276Q445 340
424 382T368 446T290 467Q247 467 212 446T157 383T136 276V235Q136 172 156 129T212 65T290 44ZM519 591L426 747V750H501L577 591H519Z" />
<glyph unicode="&#xf3;" horiz-adv-x="580" d="M286 -10Q223 -10 174 20T96 109T67 248V263Q67 346 96 403T175 491T288 521H294Q358 521 407 491T485 403T513 263V248Q513 167 484 109T406 21T292 -10H286ZM290 44Q333 44 368 65T424 129T445 235V276Q445 340
424 382T368 446T290 467Q247 467 212 446T157 383T136 276V235Q136 172 156 129T212 65T290 44ZM260 591L336 750H410L411 747L317 591H260Z" />
<glyph unicode="&#xf4;" horiz-adv-x="580" d="M286 -10Q223 -10 174 20T96 109T67 248V263Q67 346 96 403T175 491T288 521H294Q358 521 407 491T485 403T513 263V248Q513 167 484 109T406 21T292 -10H286ZM290 44Q333 44 368 65T424 129T445 235V276Q445 340
424 382T368 446T290 467Q247 467 212 446T157 383T136 276V235Q136 172 156 129T212 65T290 44ZM132 592L256 751H324L449 592H381L270 733H311L199 592H132Z" />
<glyph unicode="&#xf5;" horiz-adv-x="580" d="M286 -10Q223 -10 174 20T96 109T67 248V263Q67 346 96 403T175 491T288 521H294Q358 521 407 491T485 403T513 263V248Q513 167 484 109T406 21T292 -10H286ZM290 44Q333 44 368 65T424 129T445 235V276Q445 340
424 382T368 446T290 467Q247 467 212 446T157 383T136 276V235Q136 172 156 129T212 65T290 44ZM123 612Q124 637 134 662T165 703T218 720Q249 720 274 707T322 679T365 665Q387 665 399 679T415 720H458Q457 695 447 670T416 628T364 612Q334 612 308 626T260
654T216 668Q194 668 182 653T165 612H123Z" />
<glyph unicode="&#xf6;" horiz-adv-x="580" d="M286 -10Q223 -10 174 20T96 109T67 248V263Q67 346 96 403T175 491T288 521H294Q358 521 407 491T485 403T513 263V248Q513 167 484 109T406 21T292 -10H286ZM290 44Q333 44 368 65T424 129T445 235V276Q445 340
424 382T368 446T290 467Q247 467 212 446T157 383T136 276V235Q136 172 156 129T212 65T290 44ZM147 618V700H222V618H147ZM359 618V700H433V618H359Z" />
<glyph unicode="&#xf7;" horiz-adv-x="616" d="M52 222V288H564V222H52ZM272 65V141H344V65H272ZM272 370V445H344V370H272Z" />
<glyph unicode="&#xf8;" horiz-adv-x="580" d="M286 -10Q223 -10 174 20T96 109T67 248V263Q67 346 96 403T175 491T288 521H294Q358 521 407 491T485 403T513 263V248Q513 167 484 109T406 21T292 -10H286ZM290 44Q333 44 368 65T424 129T445 235V276Q445 340
424 382T368 446T290 467Q247 467 212 446T157 383T136 276V235Q136 172 156 129T212 65T290 44ZM326 197L714 821H764L376 197H326Z" />
<glyph unicode="&#xf9;" horiz-adv-x="619" d="M262 -10Q183 -10 133 34T83 175V511H151V193Q151 115 183 81T278 47Q320 47 354 66T409 120T430 196V511H497V78Q497 60 504 52T523 44Q534 44 548 48T573 60V10Q560 0 543 -5T505 -10Q475 -10 460 2T439 34T432
76Q406 36 359 13T262 -10ZM518 591L425 747V750H500L576 591H518Z" />
<glyph unicode="&#xfa;" horiz-adv-x="619" d="M262 -10Q183 -10 133 34T83 175V511H151V193Q151 115 183 81T278 47Q320 47 354 66T409 120T430 196V511H497V78Q497 60 504 52T523 44Q534 44 548 48T573 60V10Q560 0 543 -5T505 -10Q475 -10 460 2T439 34T432
76Q406 36 359 13T262 -10ZM259 591L335 750H409L410 747L316 591H259Z" />
<glyph unicode="&#xfb;" horiz-adv-x="619" d="M262 -10Q183 -10 133 34T83 175V511H151V193Q151 115 183 81T278 47Q320 47 354 66T409 120T430 196V511H497V78Q497 60 504 52T523 44Q534 44 548 48T573 60V10Q560 0 543 -5T505 -10Q475 -10 460 2T439 34T432
76Q406 36 359 13T262 -10ZM387 592L511 751H579L704 592H636L525 733H566L454 592H387Z" />
<glyph unicode="&#xfc;" horiz-adv-x="619" d="M262 -10Q183 -10 133 34T83 175V511H151V193Q151 115 183 81T278 47Q320 47 354 66T409 120T430 196V511H497V78Q497 60 504 52T523 44Q534 44 548 48T573 60V10Q560 0 543 -5T505 -10Q475 -10 460 2T439 34T432
76Q406 36 359 13T262 -10ZM402 618V700H477V618H402ZM614 618V700H688V618H614Z" />
<glyph unicode="&#xfd;" horiz-adv-x="517" d="M126 -186Q108 -186 92 -183T59 -172V-115Q70 -119 85 -124T115 -129Q141 -129 157 -118T189 -76T226 8L24 511H96L259 95H264L427 511H493L294 16Q273 -39 252 -85T202 -158T126 -186ZM230 591L306 750H380L381
747L287 591H230Z" />
<glyph unicode="&#xfe;" horiz-adv-x="585" d="M88 -181V720H156V447Q184 484 224 502T315 521Q371 521 417 495T490 411T518 258V245Q518 163 491 106T417 20T315 -10Q261 -10 221 11T156 69V-181H88ZM303 45Q344 45 377 65T429 128T449 236V262Q449 338 430
382T377 447T303 467Q263 467 230 448T176 385T155 263V236Q155 170 175 128T229 65T303 45Z" />
<glyph unicode="&#xff;" horiz-adv-x="517" d="M126 -186Q108 -186 92 -183T59 -172V-115Q70 -119 85 -124T115 -129Q141 -129 157 -118T189 -76T226 8L24 511H96L259 95H264L427 511H493L294 16Q273 -39 252 -85T202 -158T126 -186ZM373 618V700H448V618H373ZM585
618V700H659V618H585Z" />
<glyph unicode="&#x2013;" horiz-adv-x="500" d="M0 234V303H500V234H0Z" />
<glyph unicode="&#x2014;" horiz-adv-x="910" d="M0 234V303H910V234H0Z" />
<glyph unicode="&#x2018;" horiz-adv-x="230" d="M160 696V688Q141 664 129 639T117 583H154V483H70V570Q70 603 80 635T114 696H160Z" />
<glyph unicode="&#x2019;" horiz-adv-x="224" d="M72 483V491Q92 515 103 541T115 597H79V696H162V609Q162 576 152 544T118 483H72Z" />
<glyph unicode="&#x201a;" horiz-adv-x="244" d="M81 -113V-105Q101 -81 112 -56T123 0H87V90H170V13Q170 -20 161 -52T126 -113H81Z" />
<glyph unicode="&#x201c;" horiz-adv-x="347" d="M406 696V688Q387 664 375 639T363 583H400V483H316V570Q316 603 326 635T360 696H406ZM275 696V688Q256 664 244 639T232 583H269V483H185V570Q185 603 195 635T229 696H275Z" />
<glyph unicode="&#x201d;" horiz-adv-x="378" d="M72 483V491Q92 515 103 541T115 597H79V696H162V609Q162 576 152 544T118 483H72ZM197 483V491Q217 515 228 541T240 597H204V696H287V609Q287 576 277 544T243 483H197Z" />
<glyph unicode="&#x201e;" horiz-adv-x="369" d="M81 -113V-105Q101 -81 112 -56T123 0H87V90H170V13Q170 -20 161 -52T126 -113H81ZM207 -113V-105Q227 -81 238 -56T249 0H213V90H296V13Q296 -20 287 -52T252 -113H207Z" />
<glyph unicode="&#x2022;" horiz-adv-x="600" d="M299 200Q260 200 228 219T176 272T156 344Q156 384 175 416T227 468T299 488Q339 488 372 469T424 417T444 344Q444 305 425 272T372 220T299 200Z" />
<glyph unicode="&#x2039;" horiz-adv-x="276" d="M170 163L47 337L170 511H214L119 337L214 163H170Z" />
<glyph unicode="&#x203a;" horiz-adv-x="276" d="M54 163L150 337L54 511H99L221 337L99 163H54Z" />
</font>
</defs>
</svg>
